HIERARCHY
ROOT Hips
{
 OFFSET 0.000000 0.000000 0.000000
 CHANNELS 6 Xposition Yposition Zposition Yrotation Xrotation Zrotation
 JOINT Chest
 {
  OFFSET 0.000000 9.585900 0.002600
  CHANNELS 3 Yrotation Xrotation Zrotation
  JOINT Chest2
  {
   OFFSET 0.000000 9.601200 -0.005300
   CHANNELS 3 Yrotation Xrotation Zrotation
   JOINT Chest3
   {
    OFFSET 0.000000 9.561800 0.000000
    CHANNELS 3 Yrotation Xrotation Zrotation
    JOINT Chest4
    {
     OFFSET 0.000000 9.552100 0.000000
     CHANNELS 3 Yrotation Xrotation Zrotation
     JOINT Neck
     {
      OFFSET 0.000000 14.453000 0.000000
      CHANNELS 3 Yrotation Xrotation Zrotation
      JOINT Head
      {
       OFFSET 0.000000 8.936500 -0.011300
       CHANNELS 3 Yrotation Xrotation Zrotation
       End Site
       {
        OFFSET 0.000000 17.073600 -0.006000
       }
      }
     }
     JOINT RightCollar
     {
      OFFSET -2.921100 9.558500 0.000000
      CHANNELS 3 Yrotation Xrotation Zrotation
      JOINT RightShoulder
      {
       OFFSET -13.519700 0.000000 0.000000
       CHANNELS 3 Yrotation Xrotation Zrotation
       JOINT RightElbow
       {
        OFFSET 0.000000 -29.696600 0.000000
        CHANNELS 3 Yrotation Xrotation Zrotation
        JOINT RightWrist
        {
         OFFSET 0.000000 -24.004700 0.000000
         CHANNELS 3 Yrotation Xrotation Zrotation
         End Site
         {
          OFFSET 0.000000 -17.728500 0.000000
         }
        }
       }
      }
     }
     JOINT LeftCollar
     {
      OFFSET 2.921100 9.558500 0.000000
      CHANNELS 3 Yrotation Xrotation Zrotation
      JOINT LeftShoulder
      {
       OFFSET 13.519700 0.000000 0.000000
       CHANNELS 3 Yrotation Xrotation Zrotation
       JOINT LeftElbow
       {
        OFFSET 0.000000 -29.696600 0.000000
        CHANNELS 3 Yrotation Xrotation Zrotation
        JOINT LeftWrist
        {
         OFFSET 0.000000 -24.004700 0.000000
         CHANNELS 3 Yrotation Xrotation Zrotation
         End Site
         {
          OFFSET 0.000000 -17.728500 0.000000
         }
        }
       }
      }
     }
    }
   }
  }
 }
 JOINT RightHip
 {
  OFFSET -7.771700 -0.012900 -0.001300
  CHANNELS 3 Yrotation Xrotation Zrotation
  JOINT RightKnee
  {
   OFFSET 0.000000 -40.869800 0.001200
   CHANNELS 3 Yrotation Xrotation Zrotation
   JOINT RightAnkle
   {
    OFFSET 0.000000 -39.717900 0.002100
    CHANNELS 3 Yrotation Xrotation Zrotation
    JOINT RightToe
    {
     OFFSET 0.000000 -4.965400 11.033500
     CHANNELS 3 Yrotation Xrotation Zrotation
     End Site
     {
      OFFSET 0.000000 -1.423100 5.872300
     }
    }
   }
  }
 }
 JOINT LeftHip
 {
  OFFSET 7.771700 -0.012900 -0.001300
  CHANNELS 3 Yrotation Xrotation Zrotation
  JOINT LeftKnee
  {
   OFFSET 0.000000 -40.869800 0.001200
   CHANNELS 3 Yrotation Xrotation Zrotation
   JOINT LeftAnkle
   {
    OFFSET 0.000000 -39.717900 0.002100
    CHANNELS 3 Yrotation Xrotation Zrotation
    JOINT LeftToe
    {
     OFFSET 0.000000 -4.965400 11.033500
     CHANNELS 3 Yrotation Xrotation Zrotation
     End Site
     {
      OFFSET 0.000000 -1.423100 5.872300
     }
    }
   }
  }
 }
}
MOTION
Frames: 11
Frame Time: 0.008333
-239.138550 60.262010 -74.431818 157.067064 -22.035650 3.666591 3.920916 15.790048 1.925192 0.345272 1.566451 0.160079 0.580360 2.616562 0.275460 3.288173 13.960358 1.780634 2.088845 18.014047 -2.270504 2.725701 -6.672468 -2.890734 10.306951 2.389655 -3.737168 21.824067 -26.143247 -20.381754 31.719607 -37.268214 -23.748955 9.356138 -1.238092 -33.472727 -12.494922 -4.061090 -6.068237 -14.674464 -27.924520 15.091355 -38.284501 -21.340450 27.953377 -8.328309 5.085546 19.442392 -0.997713 -47.725114 5.673607 -20.890622 70.557100 -18.959985 -1.100257 -4.281782 -3.279719 0.128695 -0.241344 0.045457 16.666000 -46.784260 -2.615482 25.274216 66.284818 25.398763 -16.210345 -16.761919 1.855647 -0.007647 0.266632 -0.065341
-239.137436 60.262814 -74.431534 157.062389 -22.031151 3.660548 3.927736 15.794755 1.928459 0.345211 1.569952 0.158804 0.579823 2.623686 0.272202 3.291376 13.951966 1.783411 2.085799 18.011539 -2.269914 2.715047 -6.654305 -2.893186 10.302559 2.377763 -3.738403 21.821763 -26.137984 -20.378225 31.710128 -37.263539 -23.734721 9.356688 -1.249519 -33.489153 -12.493345 -4.069126 -6.064465 -14.661209 -27.931663 15.084721 -38.309632 -21.352709 27.951966 -8.324115 5.099517 19.439309 -1.008772 -47.728665 5.688162 -20.875265 70.555918 -18.944202 -1.095279 -4.275452 -3.280580 0.123237 -0.246126 0.045774 16.656602 -46.788934 -2.604028 25.281008 66.282863 25.397656 -16.155220 -16.757110 1.863329 0.012675 0.252668 -0.058496
-239.140080 60.263423 -74.431944 157.064293 -22.023104 3.672626 3.923997 15.794838 1.911722 0.344871 1.568123 0.159716 0.579389 2.621339 0.273168 3.291617 13.953145 1.783014 2.076882 18.029488 -2.276732 2.710674 -6.646729 -2.894269 10.297531 2.374666 -3.741220 21.819121 -26.133052 -20.374047 31.714756 -37.270426 -23.736839 9.349495 -1.247039 -33.495907 -12.498168 -4.066395 -6.066752 -14.654832 -27.939413 15.087956 -38.315966 -21.361620 27.939882 -8.322129 5.106492 19.447497 -0.995986 -47.736722 5.668079 -20.864228 70.554566 -18.929395 -1.098654 -4.274348 -3.284927 0.124182 -0.245536 0.048426 16.660025 -46.790629 -2.613484 25.268954 66.281026 25.377450 -16.196366 -16.740324 1.871474 -0.014557 0.237114 -0.053652
-239.145383 60.263716 -74.432459 157.069879 -22.010036 3.696986 3.912577 15.785753 1.882520 0.345554 1.571276 0.158641 0.581069 2.629131 0.270853 3.292950 13.958329 1.781424 2.066833 18.055886 -2.282539 2.708301 -6.659863 -2.892773 10.292936 2.354858 -3.742440 21.797028 -26.118950 -20.375991 31.721560 -37.292450 -23.725107 9.352267 -1.252632 -33.501166 -12.508380 -4.081802 -6.059444 -14.644948 -27.942994 15.087982 -38.316588 -21.366635 27.927886 -8.320831 5.107104 19.456253 -0.967056 -47.756963 5.625192 -20.868168 70.560606 -18.928595 -1.106257 -4.270074 -3.287545 0.128731 -0.250493 0.051728 16.675916 -46.793961 -2.647317 25.289833 66.270841 25.382495 -16.247986 -16.710539 1.883241 -0.048358 0.217553 -0.052488
-239.149717 60.264661 -74.434479 157.072184 -22.008087 3.720052 3.907758 15.797032 1.856406 0.345869 1.572790 0.158793 0.581368 2.631593 0.271224 3.302558 13.987859 1.781301 2.053694 18.045776 -2.285178 2.699988 -6.660565 -2.892662 10.274247 2.309011 -3.754784 21.793921 -26.116969 -20.371318 31.713305 -37.295925 -23.714132 9.345617 -1.256739 -33.497803 -12.517526 -4.123124 -6.055665 -14.642545 -27.941835 15.090757 -38.324947 -21.380820 27.923061 -8.324944 5.116476 19.462618 -0.940888 -47.760693 5.588597 -20.867809 70.562560 -18.926618 -1.112744 -4.274056 -3.287644 0.134817 -0.247865 0.053434 16.688767 -46.786604 -2.667654 25.281511 66.268314 25.368001 -16.334361 -16.684259 1.883767 -0.072945 0.200116 -0.045244
-239.151325 60.264959 -74.434148 157.079073 -21.998228 3.720593 3.916456 15.815194 1.850486 0.337872 1.559057 0.161660 0.589196 2.648209 0.269552 3.302555 13.979780 1.784325 2.042464 18.052153 -2.285799 2.690580 -6.663850 -2.890672 10.259274 2.283909 -3.765240 21.790685 -26.118174 -20.362387 31.711950 -37.293306 -23.695806 9.336620 -1.266570 -33.509330 -12.527309 -4.143158 -6.056776 -14.645919 -27.936515 15.092455 -38.325121 -21.385559 27.924654 -8.326778 5.115303 19.466554 -0.942026 -47.771381 5.585178 -20.862094 70.561433 -18.920905 -1.114250 -4.270712 -3.286800 0.135184 -0.249151 0.053868 16.689713 -46.794501 -2.670245 25.271805 66.266877 25.354902 -16.365089 -16.664500 1.883169 -0.076434 0.195072 -0.039569
-239.149475 60.265153 -74.432542 157.095780 -21.988571 3.695220 3.913698 15.817254 1.868089 0.341583 1.561699 0.162935 0.590316 2.654275 0.268178 3.305598 13.980069 1.785435 2.031474 18.059924 -2.285944 2.678870 -6.655703 -2.888263 10.247396 2.263132 -3.771971 21.770494 -26.118004 -20.357414 31.724779 -37.306623 -23.689178 9.339565 -1.283958 -33.512107 -12.538687 -4.162689 -6.050571 -14.648101 -27.933839 15.095844 -38.318224 -21.407974 27.909102 -8.328384 5.130338 19.474285 -0.976989 -47.778850 5.623234 -20.849917 70.557802 -18.914669 -1.125683 -4.267400 -3.283158 0.135056 -0.251087 0.053656 16.659811 -46.806331 -2.647627 25.321358 66.243496 25.388857 -16.324265 -16.652017 1.884553 -0.044820 0.204419 -0.035652
-239.148716 60.266022 -74.432591 157.101432 -21.984399 3.683514 3.914111 15.818767 1.876792 0.345620 1.570809 0.160394 0.587603 2.647119 0.270791 3.308624 13.982673 1.785549 2.026476 18.064284 -2.286078 2.666862 -6.619079 -2.889001 10.245810 2.257209 -3.781006 21.753348 -26.116187 -20.351735 31.731055 -37.320973 -23.690312 9.334869 -1.284348 -33.515885 -12.549548 -4.164057 -6.054311 -14.651118 -27.938739 15.109810 -38.315158 -21.412404 27.907614 -8.308770 5.135221 19.475347 -0.994205 -47.782094 5.640488 -20.847225 70.556386 -18.912885 -1.119917 -4.263198 -3.285357 0.128525 -0.254360 0.054985 16.649096 -46.809458 -2.636441 25.338866 66.233897 25.401401 -16.300219 -16.651413 1.884127 0.018940 0.217972 -0.021999
-239.147428 60.267405 -74.433482 157.101135 -21.984841 3.672429 3.919843 15.824782 1.887951 0.354569 1.590206 0.155183 0.580206 2.629600 0.275992 3.311844 13.985205 1.785272 2.021636 18.069255 -2.286426 2.659334 -6.591273 -2.891321 10.243505 2.247861 -3.786385 21.728706 -26.102115 -20.347515 31.743935 -37.345335 -23.688561 9.329836 -1.284154 -33.521835 -12.558318 -4.166624 -6.052044 -14.652665 -27.942438 15.116551 -38.308775 -21.423328 27.900598 -8.305100 5.140681 19.484612 -1.008947 -47.779525 5.661176 -20.852076 70.555214 -18.921623 -1.109315 -4.263285 -3.280209 0.119866 -0.255230 0.051555 16.641365 -46.810197 -2.625744 25.363290 66.231256 25.423008 -16.247558 -16.652054 1.882479 0.017558 0.227448 -0.017582
-239.147977 60.269154 -74.435493 157.098149 -21.986205 3.674054 3.927792 15.837052 1.885614 0.353236 1.584802 0.156294 0.587611 2.644221 0.271326 3.310769 13.983764 1.784667 2.018175 18.110132 -2.294230 2.651849 -6.619591 -2.881315 10.242044 2.232208 -3.793123 21.711830 -26.104543 -20.336566 31.752981 -37.353431 -23.690415 9.326235 -1.283868 -33.523223 -12.568649 -4.177912 -6.040414 -14.655269 -27.940111 15.120855 -38.305458 -21.440672 27.899239 -8.302844 5.151127 19.491298 -1.007311 -47.776134 5.663445 -20.856135 70.551626 -18.928515 -1.103207 -4.260756 -3.278821 0.115304 -0.256649 0.051409 16.653441 -46.807429 -2.631783 25.370882 66.235726 25.437468 -16.264532 -16.658840 1.883476 0.036292 0.233993 -0.008336
-239.149515 60.270880 -74.437614 157.101558 -21.985183 3.677623 3.931418 15.844335 1.877423 0.350072 1.581255 0.158882 0.588336 2.645300 0.271344 3.321823 13.994302 1.782307 2.008526 18.113389 -2.291767 2.648318 -6.629688 -2.877096 10.229477 2.214773 -3.790698 21.696297 -26.093351 -20.330235 31.762765 -37.367659 -23.696167 9.327163 -1.285931 -33.523377 -12.584491 -4.191101 -6.028588 -14.650053 -27.933172 15.120405 -38.310876 -21.452352 27.904540 -8.301443 5.155682 19.492004 -1.007601 -47.775324 5.659435 -20.869639 70.548402 -18.943054 -1.095711 -4.260522 -3.282230 0.121644 -0.256072 0.053151 16.665868 -46.806359 -2.643752 25.361014 66.241890 25.437545 -16.319009 -16.668794 1.886514 0.017830 0.242051 -0.005635
